<?xml version="1.0" standalone="no"?><!DOCTYPE svg PUBLIC "-//W3C//DTD SVG 1.1//EN" "http://www.w3.org/Graphics/SVG/1.1/DTD/svg11.dtd"><svg t="1533297617447" class="icon" style="" viewBox="0 0 1024 1024" version="1.1" xmlns="http://www.w3.org/2000/svg" p-id="2216" xmlns:xlink="http://www.w3.org/1999/xlink" width="25" height="25"><defs><style type="text/css"></style></defs><path d="M853.333 319.998h-682.667c-25.6 0-42.667-17.067-42.667-42.667s17.067-42.667 42.667-42.667h682.667c25.6 0 42.667 17.067 42.667 42.667s-17.067 42.667-42.667 42.667z" p-id="2217" fill="#E6FDEF"></path><path d="M853.333 789.335h-682.667c-25.6 0-42.667-17.067-42.667-42.667s17.067-42.667 42.667-42.667h682.667c25.6 0 42.667 17.067 42.667 42.667s-17.067 42.667-42.667 42.667z" p-id="2218" fill="#E6FDEF"></path><path d="M853.333 554.666h-682.667c-25.6 0-42.667-17.067-42.667-42.667s17.067-42.667 42.667-42.667h682.667c25.6 0 42.667 17.067 42.667 42.667s-17.067 42.667-42.667 42.667z" p-id="2219" fill="#E6FDEF"></path></svg>