<?xml version="1.0" standalone="no"?><!DOCTYPE svg PUBLIC "-//W3C//DTD SVG 1.1//EN" "http://www.w3.org/Graphics/SVG/1.1/DTD/svg11.dtd"><svg t="1533298152271" class="icon" style="" viewBox="0 0 1024 1024" version="1.1" xmlns="http://www.w3.org/2000/svg" p-id="3358" xmlns:xlink="http://www.w3.org/1999/xlink" width="32" height="32"><defs><style type="text/css"></style></defs><path d="M960.860984 193.72619c-298.637588 0-596.838224 0-895.378597 0 0-42.711777 0-85.246523 0-128.138402 298.308083 0 596.630493 0 895.378597 0C960.860984 108.187001 960.860984 150.956084 960.860984 193.72619z" p-id="3359" fill="#e6fdef"></path><path d="M65.354474 574.176085c0-42.830481 0-85.244476 0-127.966487 298.53321 0 596.856643 0 895.561769 0 0 42.496883 0 85.031629 0 127.966487C662.615323 574.176085 364.17114 574.176085 65.354474 574.176085z" p-id="3360" fill="#e6fdef"></path><path d="M65.326844 960.958198c0-42.747593 0-85.160565 0-127.910205 298.505581 0 596.829014 0 895.561769 0 0 42.412972 0 84.947717 0 127.910205C662.668535 960.958198 364.225375 960.958198 65.326844 960.958198z" p-id="3361" fill="#e6fdef"></path></svg>