<?xml version="1.0" standalone="no"?><!DOCTYPE svg PUBLIC "-//W3C//DTD SVG 1.1//EN" "http://www.w3.org/Graphics/SVG/1.1/DTD/svg11.dtd"><svg t="1533457196963" class="icon" style="" viewBox="0 0 1024 1024" version="1.1" xmlns="http://www.w3.org/2000/svg" p-id="6561" xmlns:xlink="http://www.w3.org/1999/xlink" width="32" height="32"><defs><style type="text/css"></style></defs><path d="M992.561 499.586c0.372 4.682 0.001 9.443-1.183 14.246l-87.602 403.627c-1.744 7.021-5.212 13.177-9.778 18.126-5.423 14.606-19.715 31.815-38.662 44.443-20.053 13.25-42.276 19.407-64.45 19.366v-0.007l-562.883-0.007c-1.744 0.327-3.782 0.451-5.93 0.451-2.162 0-4.3-0.006-6.41-0.513h-149.498c-1.981 0.372-4.189 0.547-6.516 0.547-22.341 0-40.446-18.948-40.446-42.267l0.372-508.001c0-23.376 18.156-42.276 40.537-42.276 1.67 0 3.318 0.004 4.896 0.349l134.595-0.327v-0.804c123.843-9.247 221.898-115.22 225.412-245.847-0.349-3.452-0.513-7.413-0.513-11.556 0-67.646 52.843-122.677 117.978-122.677 55.975 0 102.758 40.777 114.866 95.325l0.547-0.002c6.465 29.037 10.211 62.466 10.211 96.734 0 52.358-8.723 102.715-24.613 149.617l227.399-2.986c2.113 0 4.123 0.006 6.109 0.513 42.336 1.983 78.745 25.743 98.443 60.181 13.342 22.394 18.948 48.766 17.063 74.371M100.478 914.192l81.114 0.001 0.327-422.788-81.034 0.005-0.372 422.502zM906.454 468.476c-6.759-11.585-19.221-19.27-33.401-19.27-0.663 0-1.376 0.001-2.027 0.002l0.003-0.004h-0.002l-286.127-0.349c-22.357 0-40.537-18.948-40.537-42.276 0-6.747 1.532-13.084 4.294-18.72l-0.397-0.372c22.561-43.083 37.124-93.65 40.096-147.377l-4.896 45.439s5.338-22.909 5.327-66.641c-0.001-34.704-6.109-66.406-6.109-66.406h-0.349l0.002-1.781c0-21.915-16.937-39.599-37.941-39.599s-37.941 17.727-37.941 39.599c0 0.914 0.001 1.781 0.004 2.735h-0.513s0.622 33.038-5.682 67.339c-5.785 30.59-15.23 57.755-28.039 83.020 18.071-44.215 18.057-44.235 18.005-44.26-34.144 108.914-119.914 193.268-227.171 221.789l-0.397 433.38 528.532 0.007c1.744 0 3.539 0.005 5.222 0.372 6.896-1.040 12.972-3.782 18.057-7.863 5.222-3.322 11.093-11.457 13.386-20.96l-1.437 4.896 84.391-388.609-0.349-0.002c1.184-3.775 1.981-8.178 1.981-12.549 0-7.863-2.116-15.196-5.938-21.535z" fill="#bfbfbf" p-id="6562"></path></svg>