<?xml version="1.0" standalone="no"?><!DOCTYPE svg PUBLIC "-//W3C//DTD SVG 1.1//EN" "http://www.w3.org/Graphics/SVG/1.1/DTD/svg11.dtd"><svg t="1533377194163" class="icon" style="" viewBox="0 0 1024 1024" version="1.1" xmlns="http://www.w3.org/2000/svg" p-id="6349" xmlns:xlink="http://www.w3.org/1999/xlink" width="32" height="32"><defs><style type="text/css"></style></defs><path d="M426.112 744.64a32 32 0 1 0 43.776 46.72l256-239.616a32 32 0 0 0 1.408-45.312l-256-272.32a32 32 0 0 0-46.592 43.776l234.048 249.024-232.64 217.728z" fill="#bfbfbf" p-id="6350"></path><path d="M512 992a480 480 0 1 1 0-960 480 480 0 0 1 0 960z m0-64a416 416 0 1 0 0-832 416 416 0 0 0 0 832z" fill="#bfbfbf" p-id="6351"></path></svg>