<?xml version="1.0" standalone="no"?><!DOCTYPE svg PUBLIC "-//W3C//DTD SVG 1.1//EN" "http://www.w3.org/Graphics/SVG/1.1/DTD/svg11.dtd"><svg t="1533457028233" class="icon" style="" viewBox="0 0 1024 1024" version="1.1" xmlns="http://www.w3.org/2000/svg" p-id="2218" xmlns:xlink="http://www.w3.org/1999/xlink" width="32" height="32"><defs><style type="text/css"></style></defs><path d="M506.304 1023.36l-135.264-181.696H74.944c-40.96 0-74.304-33.792-74.304-75.36V75.584C0.64 34.08 33.984 0.32 74.944 0.32h874.016c40.96 0 74.304 33.792 74.304 75.296v690.72c0 41.568-33.344 75.36-74.304 75.36h-301.536l-141.12 181.728zM74.944 62.656c-6.4 0-11.68 5.856-11.68 12.96v690.72c0 7.2 5.248 13.024 11.68 13.024h327.68l104.736 140.8 109.312-140.8h332.288c6.464 0 11.68-5.824 11.68-13.024V75.584c0-7.104-5.216-12.96-11.68-12.96H74.944z" p-id="2219" fill="#bfbfbf"></path><path d="M359.424 403.744c0 37.632-30.656 68.16-68.48 68.16a68.352 68.352 0 0 1-68.48-68.16c0-37.664 30.688-68.16 68.48-68.16 37.824 0 68.48 30.496 68.48 68.16zM594.24 403.744c0 37.632-30.688 68.16-68.48 68.16a68.352 68.352 0 0 1-68.48-68.16c0-37.664 30.656-68.16 68.48-68.16 37.792 0 68.48 30.496 68.48 68.16zM825.088 403.744c0 37.632-30.656 68.16-68.48 68.16a68.352 68.352 0 0 1-68.48-68.16c0-37.664 30.656-68.16 68.48-68.16 37.824 0 68.48 30.496 68.48 68.16z" p-id="2220" fill="#bfbfbf"></path></svg>